<?xml version="1.0" encoding="UTF-8"?><svg id="a" xmlns="http://www.w3.org/2000/svg" width="514" height="620" viewBox="0 0 514 620"><path d="M404.11621,576.00926l-40.45349-73.63867h-64.84369l53.91675,102.10645c2.82764,5.1416,6.36719,9.84863,8.72614,12.02637,2.59027,2.41504,6.9306,5.86914,16.30066.81055.52643-.28711,6.03229-3.27051,11.6377-6.2998,5.63379-3.00195,11.15729-5.94043,11.69342-6.22754,9.4082-4.99219,8.80469-10.53223,8.4375-14.0625-.35742-3.41016-2.78217-9.72363-5.41498-14.71484ZM112.58539,130.83836c-2.47064,1.31348-5.06445,2.70972-7.75488,4.1604l17.80627,33.72119c23.32611,5.92871,46.11951,14.74097,69.58893,21.57886l-43.07642-78.41333c-12.97113,7.13086-26.17853,13.78857-36.5639,18.95288ZM51.41053,32.37181c3.1377-1.49438,6.16193-2.93579,8.99957-4.30884,9.30792-4.8208,20.96265-10.78125,33.02063-16.50635-1.97473-3.08472-3.95709-6.07471-5.09973-7.38184-2.29297-2.62256-6.37701-6.17041-14.06586-2.02539-.43701.22803-4.94446,2.65771-9.54303,5.13135-4.62787,2.43262-9.15668,4.80713-9.58643,5.03467-7.73438,4.05225-7.1084,9.42578-6.2417,12.83057.39355,1.51123,1.38495,4.27148,2.51654,7.22583ZM79.02832,137.18699c7.3548-3.70288,14.50867-7.5188,21.11603-11.06274,3.66858-1.96753,7.17426-3.85449,10.43909-5.58472,9.56567-4.7644,21.76367-10.91748,33.72827-17.45996,15.45813-8.45288,30.52661-17.5564,39.02417-25.15723,4.4541-3.99121,10.37842-11.18066,2.78949-25.96973-.42615-.82324-4.87976-9.50977-9.41547-18.35498-4.46338-8.87891-8.84418-17.6001-9.25879-18.43262-7.46191-14.86475-16.7641-14.31689-22.60303-13.07275-11.80188,2.51123-29.31451,9.96948-46.14355,17.96729-11.37274,5.40454-22.43359,11.05542-31.20752,15.59277-3.82031,1.85864-7.99829,3.85181-12.37054,5.95166-6.28015,3.01587-12.97308,6.2583-19.68414,9.69434L.44721,123.06395h.01123l-.01123.01318,78.58112,14.10986ZM412.41547,135.49339c-7.7168-3.54858-14.92059-7.28149-21.63721-11.07397-6.73273-3.55762-14.33667-8.06787-22.09692-13.12598l-42.74261,77.80981c23.34418-7.02954,46.08221-15.74438,69.42499-21.31763l17.05176-32.29224ZM465.5871,33.55931c1.3194-3.2417,2.51697-6.36816,2.96948-8.01392.92969-3.37793,1.64844-8.75293-6.0152-12.94678-.43207-.22607-4.92871-2.69385-9.50732-5.1958-4.55078-2.55176-9.03217-5.06836-9.45898-5.31055-7.61371-4.27148-11.75677-.7959-14.09467,1.79248-1.17963,1.30273-3.26282,4.33472-5.32458,7.43994,8.19562,3.70801,15.85272,7.56177,22.30359,11.20605,6.22034,3.28418,12.61993,6.93848,19.12769,11.02856ZM113.40277,576.00926c-2.64056,4.99121-5.06836,11.30469-5.42389,14.71484-.3667,3.53027-.97015,9.07031,8.44196,14.0625.53271.28711,6.0498,3.22559,11.68848,6.22754,5.59766,3.0293,11.11816,6.0127,11.62988,6.2998,9.38232,5.05859,13.70648,1.60449,16.29791-.81055,2.37146-2.17773,5.91351-6.88477,8.7334-12.02637l53.91693-102.10645h-64.83337l-40.45129,73.63867ZM334.53217,71.99949c9.99103,9.93384,24.76892,20.99976,39.09552,30.28955,7.71759,5.00415,15.3045,9.49438,21.9411,13.01123,6.69928,3.77417,13.91089,7.50977,21.66321,11.07178,13.90259,6.38818,29.56628,12.21167,47.29041,16.65186,5.06537,1.3457,13.28662,1.89746,20.52246-11.33301.82172-1.51221,17.66602-32.30713,18.48193-33.82227,7.23102-13.22852,2.3125-19.84668-1.53369-23.39453-13.70319-12.88672-27.46619-23.14453-40.7074-31.52979-6.78802-4.29883-13.44141-8.11426-19.87415-11.521-6.4975-3.66064-14.30579-7.59155-22.61584-11.35938-15.6037-7.07471-32.97968-13.57349-46.79144-16.62109-5.0752-1.33691-13.30267-1.89746-20.53369,11.32324-.82422,1.51562-17.64941,32.32422-18.48578,33.83203-7.22174,13.22021-2.31439,19.84766,1.54736,23.40137ZM449.87451,173.52879c-12.11041-.97388-23.86011-.3291-35.38971,1.36963-8.68176,1.2793-17.23822,3.15918-25.7287,5.40039-23.40466,6.17822-46.31134,15.09521-69.9549,21.79785-8.35944,2.36963-16.81268,4.45581-25.41211,6.04858-.6062.1123-1.20923.23535-1.81689.34253-4.33691.76758-10.16943-8.46582-15.435-13.7334,25.1499-18.95215,21.73376-56.09766-7.37701-72.13477-2.00879-2.31006-1.27783-23.69141-.12402-24.64355,2.37109-1.97705,20.92871,1.56396,23.56439-.72021,2.63531-2.30127,2.11432-24.57373.4248-26.70557-1.68158-2.12598-22.62061.15625-23.78607-1.28125-1.19141-1.43457.57281-21.4668-1.39398-23.04639-1.4248-1.13623-7.22272-1.25049-10.44189-1.22803-3.22662-.02246-9.04401.0918-10.44733,1.22803-1.979,1.57959-.20898,21.61182-1.38623,23.04639-1.18256,1.4375-22.09326-.84473-23.79248,1.28125-1.68597,2.13184-2.20459,24.4043.43073,26.70557,2.62927,2.28418,21.20496-1.25684,23.56146.72021,1.15094.95215,1.87994,22.3335-.1236,24.64355-29.10199,16.03711-32.52386,53.18262-7.3877,72.13477-5.26849,5.26758-11.10352,14.50098-15.42426,13.7334-.8822-.15576-1.75867-.33105-2.63776-.49707-6.90436-1.30566-13.71588-2.92334-20.46057-4.74951-23.73126-6.42554-46.65338-15.3584-70.00238-21.83936-7.47461-2.07471-14.99603-3.88354-22.59949-5.29053-13.84442-2.56201-27.9671-3.76074-42.61963-2.58252-31.26166,2.50195-56.81348,24.52344-62.24799,56.16309-9.79553,56.94922,31.12097,100.7334,50.9975,149.07227,6.26947,15.25098,11.77588,35.75684,10.79248,53.40137,0,0,43.61047,0,89.63525.00134,13.16656.00037,26.52893.00098,39.12622.00159,28.33655.00146,52.79431.00366,62.39331.00684h4.39655c.75604-.00024,1.60968-.00049,2.54492-.00073,11.41925-.00293,35.79156-.00488,63.34454-.00635,13.56329-.00061,27.89435-.00122,41.83057-.00146,43.65863-.00122,83.42291-.00122,83.42291-.00122-.99506-17.64453,4.52051-38.15039,10.80475-53.40137,19.8584-48.33887,60.76709-92.12305,50.98096-149.07227-5.43018-31.63965-30.98291-53.66113-62.26166-56.16309ZM233.88129,355.79539c-.08069.45923-.172.90796-.25824,1.36169-.97809,5.14612-2.30695,9.94238-3.90961,14.34265-4.67908,12.84705-11.66699,22.31433-18.93921,27.25195-3.68689,2.50317-7.44507,3.85229-11.01062,3.87476-8.67194.01758-15.61774-3.24219-21.94043-8.76953-8.70166-7.62207-15.80231-20.15039-13.52246-27.56348,1.9234-2.48535,25.37006,1.09375,27.04297-1.24219,1.6626-2.31934-2.85791-20.58691-5.50928-22.94629-2.65674-2.35938-23.81354.7959-26.64844-1.53027-2.84076-2.30859-5.4624-24.94238-8.3653-26.33789,0,0-2.80713-.41797-6.50085-.81665-6.7464-.72803-16.46063-1.39136-17.50348.67603-1.64307,3.20508,7.56055,22.08008,5.97363,25.29883-1.5625,3.22949-31.20947-2.80566-31.73584.51855-.51074,3.34375,1.70605,19.97852,4.54736,22.42188,2.84668,2.47363,30.51947,2.62988,30.51947,2.62988,5.7442,4.39453,7.26184,13.30957,7.2818,22.43652.05225,11.58496-8.9541,17.57324-23.3291,13.5498-26.79297-7.49316-60.00433-65.6084-79.71674-105.84863-14.47272-29.57324-23.2124-77.96875,14.80609-92.46484,23.18506-8.8291,47.50586-3.83984,72.44629,3.57422,2.8457.84424,5.79474,1.72314,8.80951,2.63184,2.88849.87061,5.8385,1.76953,8.82996,2.698,22.54462,6.99658,47.2832,15.61084,63.26483,25.53247,4.98828,3.09082-5.92822.62305,12.0918,40.57422,8.38617,18.57617,16.7915,58.15723,13.27588,78.14648ZM473.63178,295.10301c-19.69775,40.24023-52.8999,98.35547-79.7002,105.84863-12.55908,3.5155-21.01984-.61292-22.92743-9.43872-.27563-1.27539-.41547-2.64832-.40997-4.11108.02374-5.61035.60748-11.13623,2.38507-15.58582,1.11414-2.78882,2.69421-5.15759,4.90881-6.85071,0,0,27.66125-.15625,30.51324-2.62988,2.84131-2.44336,5.065-19.07812,4.53369-22.42188-.5166-3.32422-30.16022,2.71094-31.72699-.51855-1.57135-3.21875,7.62738-22.09375,5.98816-25.29883-.61053-1.19727-4.12878-1.47852-8.29242-1.36194-6.96143.19495-15.72754,1.50256-15.72754,1.50256-2.89453,1.39551-5.52881,24.0293-8.34961,26.33789-2.84424,2.32617-24.00592-.8291-26.65094,1.53027-2.65814,2.35938-7.17615,20.62695-5.521,22.94629,1.67535,2.33594,25.12115-1.24316,27.06305,1.24219,2.26465,7.41309-4.83594,19.94141-13.53424,27.56348-6.31689,5.52734-13.27826,8.78711-21.94037,8.76953-1.97198-.01245-4.00397-.4364-6.05017-1.22913-8.20471-3.17859-16.64191-12.41907-22.41144-26.08777-2.43176-5.76099-4.39075-12.30518-5.65662-19.51416-.36298-2.06592-.59204-4.35059-.71362-6.79028-1.05493-21.16565,6.47198-54.69983,13.98273-71.3562,18.03662-39.95117,7.11078-37.4834,12.104-40.57422,16.96228-10.53809,43.81659-19.60083,67.43866-26.81738,4.64929-1.42041,9.17584-2.77051,13.47443-4.04492,1.09137-.32471,2.18121-.64258,3.2702-.95703,23.77991-6.86548,46.98651-11.05957,69.1507-2.61719,38.0415,14.49609,29.2934,62.8916,14.7998,92.46484ZM59.30854,492.19383h395.38623v-33.56348H59.30854v33.56348Z" style="fill:#0058a8; stroke-width:0px;"/></svg>